<svg xmlns="http://www.w3.org/2000/svg" width="1024" height="1024" viewBox="0 0 1024 1024">
  <!-- The Octo on an onyx field. Flat brass — no gradients (design rule). -->
  <rect x="0" y="0" width="1024" height="1024" rx="229" ry="229" fill="#0e0c0a" />
  <!-- Hairline interior border — the atelier frame. -->
  <rect x="32" y="32" width="960" height="960" rx="200" ry="200"
        fill="none" stroke="#2a2419" stroke-width="2" opacity="0.9" />
  <!-- Mark centered at ~62% field width (64u × 9.9 = 634px). -->
  <g transform="translate(512 512) scale(9.9) translate(-32 -33)">
    <g fill="#7b6044">
      <circle cx="10" cy="48.5" r="5"/>
      <circle cx="21" cy="50" r="5"/>
      <circle cx="43" cy="50" r="5"/>
      <circle cx="54" cy="48.5" r="5"/>
    </g>
    <path fill="#d4a574" d="M10 30 C10 17.8 19.8 8 32 8 C44.2 8 54 17.8 54 30 L54 47
      A5.5 5.5 0 0 1 43 47 A5.5 5.5 0 0 1 32 47
      A5.5 5.5 0 0 1 21 47 A5.5 5.5 0 0 1 10 47 Z"/>
    <circle cx="25" cy="27" r="3" fill="#0e0c0a"/>
    <circle cx="39" cy="27" r="3" fill="#0e0c0a"/>
  </g>
</svg>
